<svg width="42" height="42" viewBox="0 0 42 42" fill="none" xmlns="http://www.w3.org/2000/svg">
<g clip-path="url(#clip0_459_2304)">
<rect x="9.25" y="15.25" width="23.5" height="19.5" rx="2.75" fill="#676767" stroke="#676767" stroke-width="2.5"/>
<rect x="20" y="11" width="2" height="25" rx="1" fill="white"/>
<rect x="34" y="24" width="2" height="26" rx="1" transform="rotate(90 34 24)" fill="white"/>
<path d="M20 13C20 13 16.3221 13 14.4286 13C12.535 13 11 11.433 11 9.5C11 7.567 12.535 6 14.4286 6C18.7143 6 20 13 20 13Z" stroke="white" stroke-width="2"/>
<path d="M22 13C22 13 25.6779 13 27.5714 13C29.465 13 31 11.433 31 9.5C31 7.567 29.465 6 27.5714 6C23.2857 6 22 13 22 13Z" stroke="white" stroke-width="2"/>
</g>
<defs>
<clipPath id="clip0_459_2304">
<rect width="40.0167" height="40.0167" fill="white" transform="translate(0.990234 0.990234)"/>
</clipPath>
</defs>
</svg>
