<svg width="40" height="40" viewBox="0 0 40 40" fill="none" xmlns="http://www.w3.org/2000/svg">
<circle cx="18.5" cy="18.5" r="16.5" fill="#676767"/>
<path d="M12.7116 23.1082L18.8075 19.3916V11.6367" stroke="#1D1D1F" stroke-width="2" stroke-linecap="round" stroke-linejoin="round"/>
<path d="M38 33.0016C38 34.9346 34.866 36.5016 31 36.5016C27.134 36.5016 24 34.9346 24 33.0016C24 31.9253 24.0005 28.0025 24.0005 28.0025C25.2173 27.4914 29.2865 29.5016 31 29.5016C31.695 29.5016 34.3663 25.9075 35 26.0018C37.3462 26.351 38 28.0025 38 28.0025C38.0257 29.1819 38 30.7388 38 33.0016Z" fill="white"/>
<path d="M38 28.4996C38 30.4326 34.866 31.9996 31 31.9996C27.134 31.9996 24 30.4326 24 28.4996C24 27.4234 24.0005 23.5005 24.0005 23.5005C25.2173 22.9894 29.2865 24.9996 31 24.9996C31.695 24.9996 34.3663 21.4056 35 21.4999C37.3462 21.849 38 23.5005 38 23.5005C38.0257 24.6799 38 26.2369 38 28.4996Z" fill="#BDBDBD"/>
<path d="M37 23.5C37 23.8837 36.663 24.5002 35.5025 25.0804C34.4019 25.6308 32.8114 26 31 26C29.1886 26 27.5981 25.6308 26.4975 25.0804C25.337 24.5002 25 23.8837 25 23.5C25 23.1163 25.337 22.4998 26.4975 21.9196C27.5981 21.3692 29.1886 21 31 21C32.8114 21 34.4019 21.3692 35.5025 21.9196C36.663 22.4998 37 23.1163 37 23.5Z" fill="#BDBDBD" stroke="white" stroke-width="2"/>
<ellipse cx="31" cy="23.5" rx="5" ry="1.5" fill="#BDBDBD"/>
</svg>
