<svg width="47" height="44" viewBox="0 0 47 44" fill="none" xmlns="http://www.w3.org/2000/svg">
<circle opacity="0.4" cx="20.5" cy="24" r="18" fill="#676767"/>
<circle cx="20.5" cy="24" r="10" fill="#1D1D1F"/>
<path d="M20.4986 20.3158V19.0877" stroke="#F5F5F5" stroke-width="2" stroke-linecap="round" stroke-linejoin="round"/>
<path d="M20.4986 27.6854V28.9134" stroke="#F5F5F5" stroke-width="2" stroke-linecap="round" stroke-linejoin="round"/>
<path d="M18.3725 26.8071C18.6911 27.3278 19.2342 27.6885 19.8897 27.6885H20.5044H21.2356C22.1886 27.6885 22.9592 26.9166 22.9592 25.965C22.9592 25.1734 22.4202 24.4843 21.6539 24.2906L19.3521 23.7123C18.5872 23.5201 18.0469 22.8295 18.0469 22.038C18.0469 21.085 18.8188 20.3145 19.7704 20.3145H20.5016H21.1163C21.7718 20.3145 22.3135 20.6723 22.6321 21.1916" stroke="#F5F5F5" stroke-width="2" stroke-linecap="round" stroke-linejoin="round"/>
<path d="M34.0859 12.0449L30.4397 15.6912" stroke="#1D1D1F" stroke-width="2" stroke-linecap="round" stroke-linejoin="round"/>
<path fill-rule="evenodd" clip-rule="evenodd" d="M32.8484 8.80783V13.2114H37.2519L41.6555 8.80783L38.7194 7.34035L37.2519 4.4043L32.8484 8.80783Z" fill="#1D1D1F" stroke="#1D1D1F" stroke-width="2" stroke-linecap="round" stroke-linejoin="round"/>
</svg>
