<svg width="38" height="38" viewBox="0 0 38 38" fill="none" xmlns="http://www.w3.org/2000/svg">
<path fill-rule="evenodd" clip-rule="evenodd" d="M26.1716 29.4962H8.75489C7.00531 29.4962 5.58823 28.0791 5.58823 26.3296V8.75456C5.58823 7.00497 7.00531 5.58789 8.75489 5.58789H26.1716C27.9211 5.58789 29.3382 7.00497 29.3382 8.75456V26.3296C29.3382 28.0791 27.9211 29.4962 26.1716 29.4962Z" fill="#BDBDBD" stroke="#BDBDBD" stroke-width="1.5" stroke-linecap="round" stroke-linejoin="round"/>
<path fill-rule="evenodd" clip-rule="evenodd" d="M30.0833 33.4083H12.6667C10.9171 33.4083 9.5 31.9912 9.5 30.2417V12.6667C9.5 10.9171 10.9171 9.5 12.6667 9.5H30.0833C31.8329 9.5 33.25 10.9171 33.25 12.6667V30.2417C33.25 31.9912 31.8329 33.4083 30.0833 33.4083Z" fill="#1D1D1F" stroke="#1D1D1F" stroke-width="1.5" stroke-linecap="round" stroke-linejoin="round"/>
<path fill-rule="evenodd" clip-rule="evenodd" d="M21.2728 22.6722C22.2056 23.605 22.2056 25.1174 21.2728 26.0502C20.34 26.9829 18.8277 26.9829 17.8949 26.0502C16.9621 25.1174 16.9621 23.605 17.8949 22.6722C18.8277 21.7395 20.34 21.7395 21.2728 22.6722Z" fill="#F5F5F5"/>
<path d="M21.2728 22.6722C22.2056 23.605 22.2056 25.1174 21.2728 26.0502C20.34 26.9829 18.8277 26.9829 17.8949 26.0502C16.9621 25.1174 16.9621 23.605 17.8949 22.6722C18.8277 21.7395 20.34 21.7395 21.2728 22.6722" stroke="#F5F5F5" stroke-width="2" stroke-linecap="round" stroke-linejoin="round"/>
<path d="M25.5555 17.1943L21.9727 16V24.3599" stroke="#F5F5F5" stroke-width="2" stroke-linecap="round" stroke-linejoin="round"/>
</svg>
