<svg width="40" height="40" viewBox="0 0 40 40" fill="none" xmlns="http://www.w3.org/2000/svg">
<circle cx="20" cy="20" r="16" fill="#1D1D1F"/>
<mask id="mask0_206_1207" style="mask-type:alpha" maskUnits="userSpaceOnUse" x="4" y="4" width="32" height="32">
<circle cx="20" cy="20" r="16" fill="#1D1D1F"/>
</mask>
<g mask="url(#mask0_206_1207)">
<path fill-rule="evenodd" clip-rule="evenodd" d="M32.5 31.5C32 33.5 27.5206 26.2883 27.5206 26.2883C26.9839 25.4833 26.0822 25 25.1156 25C24.0206 25 23.0206 24.3817 22.5306 23.4017L22.3089 22.9583C21.9022 22.145 21.9022 21.1867 22.3089 20.3733L24.1972 16.5967C24.6856 15.6183 25.6872 15 26.7822 15H37" fill="#676767"/>
<rect x="33" y="19" width="6" height="11" fill="#676767"/>
<path d="M15.5014 18.5001C12.8764 22 5.50138 20.0001 2.00138 20.0001C-0.498623 11.5001 10.0014 1.50009 10.5014 5.00009C11.0014 8.50009 13.5014 10.0001 15.5014 12.0001C17.5014 14.0001 17.0014 16.5001 15.5014 18.5001Z" fill="#676767"/>
</g>
<path d="M22 15.6667C22 20.3333 17.7143 23 17 23C16.2857 23 12 20.3333 12 15.6667C12 13.0893 14.2386 11 17 11C19.7614 11 22 13.0893 22 15.6667Z" fill="#F5F5F5"/>
<circle cx="17" cy="16" r="2" fill="#1D1D1F"/>
</svg>
