<svg width="42" height="42" viewBox="0 0 42 42" fill="none" xmlns="http://www.w3.org/2000/svg">
<path fill-rule="evenodd" clip-rule="evenodd" d="M13.5 22.9996L9.48775 21.6075C9.0292 21.4546 8.65955 21.1103 8.47458 20.6637C8.28961 20.2172 8.30752 19.7123 8.52368 19.28L10.5379 15.2518C10.8203 14.6869 11.3976 14.3301 12.0291 14.3301H19.3354" fill="#BDBDBD"/>
<path fill-rule="evenodd" clip-rule="evenodd" d="M27.6727 22.667V29.9734C27.6727 30.6049 27.3159 31.1823 26.751 31.4647L22.7228 33.4789C22.2905 33.695 21.7856 33.7129 21.3391 33.528C20.8925 33.343 20.5482 32.9733 20.3954 32.5148L18.5 27.9998" fill="#BDBDBD"/>
<path fill-rule="evenodd" clip-rule="evenodd" d="M29.5019 21.2053L20.5035 28.4039C19.8401 28.9347 18.8837 28.8817 18.283 28.281L13.724 23.722C13.1233 23.1213 13.0703 22.1649 13.601 21.5014L20.7997 12.5031C24.0914 8.38843 29.0751 5.99316 34.3445 5.99316C35.2653 5.99316 36.0118 6.73967 36.0118 7.66053C36.0118 12.9299 33.6166 17.9135 29.5019 21.2053Z" fill="#1D1D1F"/>
<path fill-rule="evenodd" clip-rule="evenodd" d="M10.5815 35.3167L5.99609 36.0056L6.68496 31.4202C6.90843 29.9327 8.07613 28.765 9.56365 28.5415C10.6386 28.38 11.7263 28.7382 12.495 29.5068C13.2636 30.2754 13.6218 31.3632 13.4603 32.4381C13.2368 33.9256 12.069 35.0933 10.5815 35.3167Z" fill="#1D1D1F"/>
</svg>
