<svg width="40" height="40" viewBox="0 0 40 40" fill="none" xmlns="http://www.w3.org/2000/svg">
<path fill-rule="evenodd" clip-rule="evenodd" d="M10.6667 3H25.3333C27.3592 3 29 4.64083 29 6.66667V32.3333C29 34.3592 27.3592 36 25.3333 36H10.6667C8.64083 36 7 34.3592 7 32.3333V6.66667C7 4.64083 8.64083 3 10.6667 3Z" fill="#BDBDBD"/>
<path fill-rule="evenodd" clip-rule="evenodd" d="M18.3611 26H30.6389C31.9434 26 33 24.9164 33 23.5785V15.4215C33 14.0836 31.9434 13 30.6389 13H18.3611C17.0566 13 16 14.0836 16 15.4215V23.5785C16 24.9164 17.0578 26 18.3611 26Z" fill="#1D1D1F"/>
<rect x="24" y="21" width="6" height="2" rx="1" fill="#F5F5F5"/>
<path d="M12 3H24V4C24 5.10457 23.1046 6 22 6H14C12.8954 6 12 5.10457 12 4V3Z" fill="#1D1D1F"/>
</svg>
