<svg width="40" height="40" viewBox="0 0 40 40" fill="none" xmlns="http://www.w3.org/2000/svg">
<path d="M9.03213 5C5 5 4 8 4.03213 11L4.02429 11.9759C4.01091 13.6421 5.35792 15 7.0242 15H14V11C14 11 14 5 9.03213 5Z" fill="#BDBDBD"/>
<path d="M18 14L20 16L24 12" stroke="#1D1D1F" stroke-width="2.5" stroke-linecap="round" stroke-linejoin="round"/>
<path d="M31.0069 5H9C13.6731 5 13.1538 11 13.1538 11V33.5747C13.1538 33.8464 13.2644 34.1065 13.4602 34.295L14.9462 35.726C15.113 35.8866 15.3683 35.9117 15.5632 35.7866L18.076 34.1734C18.2406 34.0678 18.4517 34.0678 18.6163 34.1734L21.1914 35.8266C21.356 35.9322 21.5671 35.9322 21.7317 35.8266L24.3068 34.1734C24.4714 34.0677 24.6825 34.0677 24.847 34.1734L27.4222 35.8266C27.5868 35.9322 27.7978 35.9322 27.9624 35.8266L30.5376 34.1734C30.7022 34.0678 30.9132 34.0678 31.0778 34.1734L33.5907 35.7866C33.7855 35.9117 34.0408 35.8866 34.2076 35.726L35.6936 34.295C35.8894 34.1065 36 33.8464 36 33.5747V10C36 7.23858 33.7684 5 31.0069 5Z" fill="#1D1D1F"/>
<path d="M22 19.6L24.25 22L28 18" stroke="#F5F5F5" stroke-width="2" stroke-linecap="round" stroke-linejoin="round"/>
</svg>
