<svg width="40" height="40" viewBox="0 0 40 40" fill="none" xmlns="http://www.w3.org/2000/svg">
<path fill-rule="evenodd" clip-rule="evenodd" d="M32.6602 20.6852L23.1802 23.2252C21.4968 23.6768 19.7668 22.6768 19.3152 20.9935L16.7752 11.5135C16.3235 9.83015 17.3235 8.10015 19.0068 7.64849L28.4868 5.10849C30.1702 4.65682 31.9002 5.65682 32.3518 7.34015L34.8918 16.8202C35.3435 18.5035 34.3435 20.2335 32.6602 20.6852Z" fill="#BDBDBD"/>
<path fill-rule="evenodd" clip-rule="evenodd" d="M16.25 34.9997C18.7813 34.9997 20.8334 32.9476 20.8334 30.4163C20.8334 27.885 18.7813 25.833 16.25 25.833C13.7187 25.833 11.6667 27.885 11.6667 30.4163C11.6667 32.9476 13.7187 34.9997 16.25 34.9997Z" fill="#1D1D1F" stroke="#1D1D1F" stroke-width="2" stroke-linecap="round" stroke-linejoin="round"/>
<path d="M3.33331 6.05511L6.10998 5.31177C7.88831 4.83511 9.71665 5.89011 10.1933 7.66844" stroke="#1D1D1F" stroke-width="2" stroke-linecap="round" stroke-linejoin="round"/>
<path d="M10.1953 7.66797L15.102 25.978" stroke="#1D1D1F" stroke-width="2" stroke-linecap="round" stroke-linejoin="round"/>
<path d="M35.9169 25.1836L20.6836 29.2503" stroke="#1D1D1F" stroke-width="2" stroke-linecap="round" stroke-linejoin="round"/>
</svg>
