<svg width="40" height="40" viewBox="0 0 40 40" fill="none" xmlns="http://www.w3.org/2000/svg">
<path fill-rule="evenodd" clip-rule="evenodd" d="M12.6667 2H27.3333C29.3592 2 31 3.64083 31 5.66667V31.3333C31 33.3592 29.3592 35 27.3333 35H12.6667C10.6408 35 9 33.3592 9 31.3333V5.66667C9 3.64083 10.6408 2 12.6667 2Z" fill="#BDBDBD"/>
<path d="M14 2H26V3C26 4.10457 25.1046 5 24 5H16C14.8954 5 14 4.10457 14 3V2Z" fill="#1D1D1F"/>
<rect x="16" y="19" width="20" height="20" rx="10" fill="#1D1D1F"/>
<path d="M28.5838 31C29.2372 31 29.712 31.6278 29.3561 32.1758C28.643 33.2738 27.4058 34.0001 25.999 34.0001C24.5922 34.0001 23.355 33.2738 22.6419 32.1758C22.286 31.6278 22.7611 31 23.4145 31C25.1058 31 27.0603 31 28.5838 31Z" fill="#F5F5F5"/>
<ellipse cx="23" cy="26.5" rx="1" ry="1.5" fill="#F5F5F5"/>
<ellipse cx="29" cy="26.5" rx="1" ry="1.5" fill="#F5F5F5"/>
</svg>
