<svg width="40" height="40" viewBox="0 0 40 40" fill="none" xmlns="http://www.w3.org/2000/svg">
<path fill-rule="evenodd" clip-rule="evenodd" d="M9.99925 20C8.41026 20 7.04135 21.1221 6.72956 22.6811L5.0622 31.0179C4.64869 33.0804 6.22768 35.0062 8.33189 35.0062H31.6733C33.7775 35.0062 35.3565 33.0804 34.943 31.0179L33.2756 22.6811C32.9638 21.1221 31.5949 20 30.0059 20" fill="#BDBDBD"/>
<path d="M20.0013 28.3333V15" stroke="#1D1D1F" stroke-width="2.5" stroke-linecap="round" stroke-linejoin="round"/>
<path fill-rule="evenodd" clip-rule="evenodd" d="M23.5355 6.46446C25.4881 8.41708 25.4881 11.5829 23.5355 13.5355C21.5829 15.4881 18.4171 15.4881 16.4645 13.5355C14.5118 11.5829 14.5118 8.41708 16.4645 6.46446C18.4171 4.51185 21.5829 4.51185 23.5355 6.46446Z" fill="#1D1D1F"/>
<path d="M23.5355 6.46446C25.4881 8.41708 25.4881 11.5829 23.5355 13.5355C21.5829 15.4881 18.4171 15.4881 16.4645 13.5355C14.5118 11.5829 14.5118 8.41708 16.4645 6.46446C18.4171 4.51185 21.5829 4.51185 23.5355 6.46446" stroke="#1D1D1F" stroke-width="2.5" stroke-linecap="round" stroke-linejoin="round"/>
</svg>
