<svg width="40" height="40" viewBox="0 0 40 40" fill="none" xmlns="http://www.w3.org/2000/svg">
<path d="M13.8549 26.1553C13.5168 26.8328 13.3388 27.579 13.3347 28.3362C13.3523 30.9051 15.313 33.043 17.8708 33.2822C20.4285 33.5215 22.7517 31.7843 23.2455 29.2632" stroke="#BDBDBD" stroke-width="2.5" stroke-linecap="round" stroke-linejoin="round"/>
<path fill-rule="evenodd" clip-rule="evenodd" d="M30.0269 31.5044L7.98107 24.2131C6.69839 23.7934 5.82977 22.5981 5.82684 21.2485V17.0801C5.8312 15.7317 6.69955 14.5381 7.98107 14.1189L30.0269 6.82748C30.9829 6.50665 32.0348 6.66377 32.8554 7.24997C33.6759 7.83616 34.1656 8.78031 34.172 9.78872V28.5432C34.1656 29.5516 33.6759 30.4957 32.8554 31.0819C32.0348 31.6681 30.9829 31.8253 30.0269 31.5044Z" fill="#1D1D1F"/>
<path d="M19.9987 15L28.9987 12" stroke="#F5F5F5" stroke-width="2" stroke-linecap="round"/>
</svg>
