<svg width="16" height="20" viewBox="0 0 16 20" fill="none" xmlns="http://www.w3.org/2000/svg">
<g clip-path="url(#clip0_460_5523)">
<path d="M13.3622 10.6254C13.3898 13.652 15.9704 14.6592 15.999 14.6721C15.9772 14.743 15.5866 16.1074 14.6394 17.5166C13.8205 18.735 12.9707 19.9488 11.6319 19.974C10.3164 19.9987 9.89341 19.1799 8.38944 19.1799C6.88592 19.1799 6.41594 19.9489 5.17069 19.9987C3.87842 20.0485 2.89434 18.6812 2.06872 17.4673C0.381588 14.9842 -0.907729 10.4508 0.823499 7.39061C1.68353 5.87092 3.22049 4.90859 4.88871 4.88391C6.15768 4.85927 7.3554 5.753 8.13117 5.753C8.90645 5.753 10.3619 4.67821 11.8921 4.83606C12.5327 4.8632 14.3308 5.09947 15.4854 6.81993C15.3923 6.87864 13.3399 8.095 13.3622 10.6254V10.6254ZM10.8899 3.1933C11.5759 2.34789 12.0377 1.171 11.9117 0C10.9228 0.0404618 9.72699 0.670851 9.01766 1.5158C8.38196 2.26404 7.82524 3.46164 7.97545 4.60946C9.07772 4.69628 10.2038 4.03925 10.8899 3.1933Z" fill="white"/>
</g>
<defs>
<clipPath id="clip0_460_5523">
<rect width="16" height="20" fill="white"/>
</clipPath>
</defs>
</svg>
