<svg width="14" height="17" viewBox="0 0 14 17" fill="none" xmlns="http://www.w3.org/2000/svg">
<path d="M8.9767 5.1908L0.529252 0.0668115C0.423102 0.00139893 0.289559 0.00503296 0.186834 0.0704455C0.0806844 0.135858 0.015625 0.252147 0.015625 0.382972C0.015625 0.382972 0.0190492 0.855396 0.0224734 1.63308L6.17572 8.16343L8.9767 5.1908Z" fill="white" fill-opacity="0.79"/>
<path d="M0.0214844 1.63281C0.0317569 4.43828 0.0625745 11.2485 0.0762712 14.639L6.17816 8.16317L0.0214844 1.63281Z" fill="white" fill-opacity="0.62"/>
<path d="M13.8112 8.12016L8.97628 5.1875L6.17188 8.16014L9.33582 11.518L13.8146 8.74885C13.9208 8.68344 13.9859 8.56352 13.9859 8.43632C13.9859 8.3055 13.9174 8.18558 13.8112 8.12016Z" fill="white" fill-opacity="0.91"/>
<path d="M0.0722656 14.6363C0.079114 15.8464 0.0825382 16.6205 0.0825382 16.6205C0.0825382 16.7513 0.147598 16.8712 0.253747 16.933C0.359897 16.9984 0.490016 16.9984 0.596165 16.933L9.3381 11.5219L6.17415 8.16406L0.0722656 14.6363Z" fill="white"/>
</svg>
