<svg width="88" height="26" viewBox="0 0 88 26" fill="none" xmlns="http://www.w3.org/2000/svg">
<path d="M43.2606 8.59458C42.77 9.07959 39.8328 18.1253 39.6928 18.5295C39.5528 18.0573 37.0223 9.4887 36.7198 8.47431C36.4146 8.3335 36.0989 8.21488 35.7754 8.11942C35.2343 7.94668 34.6673 7.86141 34.0973 7.86705C33.0937 7.86705 32.4001 8.06947 32.0165 8.47431C31.6329 8.87914 31.3341 9.41969 31.1202 10.096C31.0026 10.5011 28.742 18.1253 28.6019 18.5295C28.4384 18.0573 25.7924 9.38815 25.4899 8.37573C25.2161 8.25916 24.9356 8.15779 24.6498 8.0721C24.2308 7.93672 23.6479 7.86936 22.9012 7.87001C21.9677 7.87001 21.2738 8.10595 20.8193 8.57782C20.3772 9.022 20.1326 9.61527 20.1377 10.231C20.1319 10.8281 20.2328 11.4217 20.4361 11.9857C20.6333 12.525 25.2559 23.838 25.8384 25.0752H31.2551C31.3706 24.7371 33.8428 16.6298 34.0533 15.9999C34.2628 16.6298 36.7453 24.7154 36.8853 25.0752H42.2723C42.8784 23.838 48.5444 9.46701 48.711 8.81441C48.609 8.75752 48.5101 8.69566 48.4146 8.62908C48.2103 8.50153 47.9933 8.39419 47.7667 8.30869C47.4484 8.1843 47.1212 8.08249 46.7876 8.00408C46.3756 7.91088 45.9536 7.86586 45.5305 7.87001C44.5044 7.87001 43.7467 8.11153 43.2575 8.59458H43.2606ZM51.9651 8.40925C51.4289 8.77005 51.1607 9.38848 51.1607 10.2645V25.0752H56.792V8.37573C56.6517 8.33104 56.3253 8.23542 55.8129 8.08886C55.2554 7.93715 54.6782 7.86345 54.099 7.87001C53.2133 7.87001 52.502 8.04976 51.9651 8.40925ZM15.744 0.715067C15.2229 1.01451 14.731 1.35898 14.2744 1.74424C13.7378 2.21546 6.37734 10.4784 5.8418 11.0601V0.813647C5.70145 0.7683 5.36895 0.667093 4.84432 0.510022C4.25968 0.344941 3.65265 0.265517 3.04354 0.274414C2.13395 0.274414 1.39947 0.460072 0.840091 0.831391C0.280712 1.20271 0.000681339 1.84939 0 2.77145V25.0801H5.8418V14.9707C6.49384 15.6017 14.0833 24.2866 14.6904 25.0752H21.8587C21.0207 23.9031 12.5584 13.7247 11.5773 12.7103C11.9033 12.3525 21.5726 1.9207 21.6891 1.80832C21.5497 1.65107 21.3976 1.50472 21.2343 1.37062C20.9928 1.16859 20.7289 0.993033 20.4473 0.847164C20.0866 0.660688 19.7054 0.513556 19.3109 0.408484C18.8328 0.280169 18.3384 0.217446 17.8422 0.222166C17.0028 0.222166 16.3034 0.386467 15.744 0.715067ZM51.7412 1.09164C51.4495 1.37503 51.2201 1.71232 51.0668 2.0833C50.9135 2.45427 50.8394 2.85129 50.849 3.25055C50.849 4.10491 51.1464 4.81929 51.7412 5.39368C52.0311 5.67549 52.3776 5.89712 52.7595 6.04496C53.1414 6.19279 53.5507 6.26369 53.9621 6.2533C54.3759 6.26253 54.7874 6.19116 55.172 6.04346C55.5565 5.89576 55.9063 5.67476 56.2003 5.39368C56.4974 5.1166 56.7316 4.78306 56.8882 4.41417C57.0447 4.04527 57.1202 3.64904 57.1099 3.25055C57.1154 2.85035 57.0377 2.45315 56.8814 2.08238C56.7252 1.7116 56.4935 1.37478 56.2001 1.09177C55.9067 0.808764 55.5575 0.585313 55.1731 0.434603C54.7888 0.283894 54.377 0.20898 53.9621 0.214281C53.5491 0.204354 53.1385 0.277205 52.7562 0.428225C52.374 0.579246 52.0283 0.805149 51.7412 1.09164ZM82.8532 8.4122C82.317 8.77301 82.0489 9.39143 82.0489 10.2675V25.0752H87.6802V8.37573C87.5392 8.33104 87.2124 8.23542 86.7001 8.08886C86.1426 7.93715 85.5654 7.86345 84.9862 7.87001C84.1004 7.87001 83.3894 8.04976 82.8532 8.40925V8.4122ZM82.6294 1.08869C82.338 1.37226 82.1089 1.70961 81.9558 2.08055C81.8027 2.4515 81.7287 2.84843 81.7382 3.24759C81.7382 4.10195 82.0353 4.81633 82.6294 5.39072C83.2235 5.96512 83.9642 6.25166 84.8513 6.25034C85.2651 6.25957 85.6766 6.1882 86.0612 6.0405C86.4457 5.8928 86.7955 5.6718 87.0895 5.39072C87.3866 5.11365 87.6208 4.78011 87.7774 4.41121C87.9339 4.04231 88.0094 3.64608 87.9991 3.24759C88.0046 2.84739 87.9269 2.45019 87.7706 2.07942C87.6144 1.70865 87.3827 1.37182 87.0893 1.08881C86.7959 0.805807 86.4467 0.582356 86.0623 0.431646C85.678 0.280936 85.2662 0.206023 84.8513 0.211324C84.4381 0.20132 84.0274 0.27413 83.6449 0.425151C83.2625 0.576172 82.9167 0.802117 82.6294 1.08869ZM61.6251 0.751541C61.0896 1.11103 60.8218 1.72946 60.8218 2.60682V25.0752H66.452V18.2436C67.0836 18.9337 72.4747 24.7597 72.7486 25.0575H79.3559C78.5169 23.8853 71.5232 15.7466 71.5232 15.7466C71.5232 15.7466 72.485 14.9905 73.1493 14.4847C73.8136 13.979 74.5024 13.4536 75.2127 12.9075C75.923 12.3613 76.6118 11.8024 77.2761 11.2424C77.9404 10.6825 78.4944 10.1768 78.9379 9.72825C78.8083 9.5268 78.6558 9.33998 78.4831 9.17127C78.2514 8.94127 77.9932 8.73754 77.7136 8.56402C77.3855 8.36023 77.0335 8.19477 76.665 8.07112C76.2487 7.93327 75.8112 7.86493 75.3711 7.86903C74.9721 7.86235 74.5735 7.89538 74.1815 7.96761C73.8612 8.03315 73.55 8.13507 73.2545 8.27123C72.9513 8.41266 72.6674 8.58982 72.4093 8.79864C72.1405 9.01256 66.866 13.2525 66.4459 13.5886V0.715067C66.3062 0.671034 65.9799 0.575741 65.4668 0.429185C64.9094 0.277127 64.3322 0.203092 63.7529 0.20935C62.8672 0.20935 62.1559 0.389424 61.619 0.749571" fill="url(#paint0_linear_420_1246)"/>
<defs>
<linearGradient id="paint0_linear_420_1246" x1="86.462" y1="-2.60055" x2="0.155233" y2="26.436" gradientUnits="userSpaceOnUse">
<stop stop-color="#FFD600"/>
<stop offset="0.1875" stop-color="#FF7A00"/>
<stop offset="0.401042" stop-color="#FF0169"/>
<stop offset="0.640625" stop-color="#D300C5"/>
<stop offset="0.891315" stop-color="#7638FA"/>
<stop offset="1" stop-color="#384BFA"/>
</linearGradient>
</defs>
</svg>
