<svg width="32" height="32" viewBox="0 0 32 32" fill="none" xmlns="http://www.w3.org/2000/svg">
<path d="M15.9154 0C15.6871 0 15.4565 0.00639998 15.2239 0.0191999C11.0526 0.223595 7.12643 2.04926 4.28307 5.10665C1.43971 8.16403 -0.0956432 12.211 0.00461898 16.3841C0.104881 20.5571 1.83282 24.5258 4.81973 27.4432C7.80664 30.3607 11.816 31.9959 15.9923 31.9999C18.2434 32.0072 20.4702 31.5337 22.5234 30.6111L21.9696 29.3759C21.7555 28.8964 21.3762 28.5098 20.9007 28.2866C20.4253 28.0634 19.8854 28.0184 19.3795 28.1599C17.5186 28.6766 15.564 28.7601 13.6658 28.4041C11.7676 28.0481 9.97622 27.2621 8.42927 26.1063C6.88231 24.9506 5.62091 23.4559 4.74192 21.737C3.86293 20.0181 3.38972 18.1208 3.35863 16.1906C3.32754 14.2604 3.73939 12.3488 4.56257 10.6025C5.38575 8.85625 6.59836 7.32174 8.10729 6.11683C9.61622 4.91191 11.3813 4.06864 13.2671 3.65176C15.1529 3.23489 17.1092 3.25549 18.9857 3.71199C19.4115 3.81119 19.8405 3.93279 20.2663 4.07359C22.2468 4.73988 24.023 5.90342 25.4244 7.45272C26.8259 9.00201 27.8058 10.8851 28.2702 12.9216C28.8804 15.4609 28.7052 18.1255 27.7676 20.5631C27.1272 21.9807 26.2052 22.7263 25.1423 22.9087C24.568 23.0026 23.9797 22.9615 23.424 22.7888C22.8683 22.6161 22.3605 22.3164 21.9407 21.9135C20.5417 20.5343 16.4437 15.648 16.4085 15.6096C16.6326 15.36 22.8788 8.37438 22.9556 8.29758C22.8641 8.193 22.7657 8.09465 22.6611 8.00318C22.5036 7.87005 22.3331 7.75319 22.152 7.65438C21.9185 7.52885 21.6715 7.43009 21.4157 7.35998C21.1031 7.273 20.7797 7.23098 20.4552 7.23518C19.9818 7.21428 19.5119 7.32506 19.0978 7.55518C18.7563 7.75327 18.4347 7.98366 18.1373 8.24318C17.7883 8.56318 13.0148 14.1024 12.6947 14.4928V7.62878L12.0544 7.42398C11.676 7.31343 11.2831 7.26056 10.889 7.26718C10.3865 7.24455 9.8889 7.37391 9.46112 7.63838C9.09935 7.88798 8.92006 8.32318 8.92006 8.94078V23.9039H12.6979V17.1264C12.7331 17.1616 18.1053 22.9407 19.5108 24.3487C20.9023 25.6463 22.7302 26.3748 24.6332 26.3903C24.9992 26.3911 25.3644 26.36 25.725 26.2975C27.2585 26.0351 29.3747 25.0527 30.8474 21.9775C31.6009 20.1077 31.992 18.1118 32 16.096V15.904C31.9747 11.6893 30.2867 7.65488 27.3026 4.67703C24.3185 1.69918 20.2794 0.0184691 16.0627 0L15.9154 0Z" fill="url(#paint0_linear_608_4260)"/>
<defs>
<linearGradient id="paint0_linear_608_4260" x1="25.7094" y1="-4.8485" x2="-9.04019" y2="5.02201" gradientUnits="userSpaceOnUse">
<stop stop-color="#FFD600"/>
<stop offset="0.281387" stop-color="#FF7A00"/>
<stop offset="0.473464" stop-color="#FF0169"/>
<stop offset="0.640625" stop-color="#B500D3"/>
<stop offset="0.797801" stop-color="#7638FA"/>
<stop offset="1" stop-color="#384BFA"/>
</linearGradient>
</defs>
</svg>
