<svg width="88" height="26" viewBox="0 0 88 26" fill="none" xmlns="http://www.w3.org/2000/svg">
<path d="M43.2606 8.59507C42.77 9.08008 39.8328 18.1258 39.6928 18.53C39.5528 18.0578 37.0223 9.48919 36.7198 8.4748C36.4146 8.33399 36.0989 8.21537 35.7754 8.11991C35.2343 7.94717 34.6673 7.8619 34.0973 7.86754C33.0937 7.86754 32.4001 8.06996 32.0165 8.4748C31.6329 8.87963 31.3341 9.42018 31.1202 10.0964C31.0026 10.5016 28.742 18.1258 28.6019 18.53C28.4384 18.0578 25.7924 9.38864 25.4899 8.37622C25.2161 8.25965 24.9356 8.15828 24.6498 8.07259C24.2308 7.93721 23.6479 7.86984 22.9012 7.8705C21.9677 7.8705 21.2738 8.10644 20.8193 8.57831C20.3772 9.02249 20.1326 9.61576 20.1377 10.2315C20.1319 10.8286 20.2328 11.4222 20.4361 11.9862C20.6333 12.5255 25.2559 23.8385 25.8384 25.0757H31.2551C31.3706 24.7376 33.8428 16.6303 34.0533 16.0004C34.2628 16.6303 36.7453 24.7159 36.8853 25.0757H42.2723C42.8784 23.8385 48.5444 9.4675 48.711 8.8149C48.609 8.75801 48.5101 8.69615 48.4146 8.62957C48.2103 8.50202 47.9933 8.39468 47.7667 8.30918C47.4484 8.18479 47.1212 8.08298 46.7876 8.00457C46.3756 7.91136 45.9536 7.86635 45.5305 7.8705C44.5044 7.8705 43.7467 8.11202 43.2575 8.59507H43.2606ZM51.9651 8.40973C51.4289 8.77054 51.1607 9.38896 51.1607 10.265V25.0757H56.792V8.37622C56.6517 8.33153 56.3253 8.2359 55.8129 8.08935C55.2554 7.93764 54.6782 7.86393 54.099 7.8705C53.2133 7.8705 52.502 8.05025 51.9651 8.40973ZM15.744 0.715555C15.2229 1.015 14.731 1.35947 14.2744 1.74473C13.7378 2.21595 6.37734 10.4789 5.8418 11.0606V0.814135C5.70145 0.768789 5.36895 0.667581 4.84432 0.51051C4.25968 0.345429 3.65265 0.266006 3.04354 0.274902C2.13395 0.274902 1.39947 0.460561 0.840091 0.831879C0.280712 1.2032 0.000681339 1.84988 0 2.77194V25.0806H5.8418V14.9712C6.49384 15.6021 14.0833 24.2871 14.6904 25.0757H21.8587C21.0207 23.9036 12.5584 13.7252 11.5773 12.7108C11.9033 12.3529 21.5726 1.92119 21.6891 1.80881C21.5497 1.65156 21.3976 1.5052 21.2343 1.37111C20.9928 1.16908 20.7289 0.993522 20.4473 0.847652C20.0866 0.661176 19.7054 0.514044 19.3109 0.408972C18.8328 0.280658 18.3384 0.217935 17.8422 0.222655C17.0028 0.222655 16.3034 0.386955 15.744 0.715555ZM51.7412 1.09213C51.4495 1.37552 51.2201 1.71281 51.0668 2.08379C50.9135 2.45476 50.8394 2.85178 50.849 3.25104C50.849 4.1054 51.1464 4.81977 51.7412 5.39417C52.0311 5.67598 52.3776 5.89761 52.7595 6.04544C53.1414 6.19328 53.5507 6.26418 53.9621 6.25379C54.3759 6.26302 54.7874 6.19165 55.172 6.04395C55.5565 5.89624 55.9063 5.67524 56.2003 5.39417C56.4974 5.11709 56.7316 4.78355 56.8882 4.41465C57.0447 4.04575 57.1202 3.64953 57.1099 3.25104C57.1154 2.85084 57.0377 2.45364 56.8814 2.08286C56.7252 1.71209 56.4935 1.37526 56.2001 1.09226C55.9067 0.809252 55.5575 0.585801 55.1731 0.435092C54.7888 0.284382 54.377 0.209468 53.9621 0.214769C53.5491 0.204843 53.1385 0.277693 52.7562 0.428714C52.374 0.579734 52.0283 0.805638 51.7412 1.09213ZM82.8532 8.41269C82.317 8.77349 82.0489 9.39192 82.0489 10.268V25.0757H87.6802V8.37622C87.5392 8.33153 87.2124 8.2359 86.7001 8.08935C86.1426 7.93764 85.5654 7.86393 84.9862 7.8705C84.1004 7.8705 83.3894 8.05025 82.8532 8.40973V8.41269ZM82.6294 1.08917C82.338 1.37275 82.1089 1.71009 81.9558 2.08104C81.8027 2.45199 81.7287 2.84891 81.7382 3.24808C81.7382 4.10244 82.0353 4.81682 82.6294 5.39121C83.2235 5.9656 83.9642 6.25214 84.8513 6.25083C85.2651 6.26006 85.6766 6.18869 86.0612 6.04099C86.4457 5.89329 86.7955 5.67229 87.0895 5.39121C87.3866 5.11413 87.6208 4.7806 87.7774 4.4117C87.9339 4.0428 88.0094 3.64657 87.9991 3.24808C88.0046 2.84788 87.9269 2.45068 87.7706 2.07991C87.6144 1.70914 87.3827 1.37231 87.0893 1.0893C86.7959 0.806295 86.4467 0.582844 86.0623 0.432134C85.678 0.281425 85.2662 0.206511 84.8513 0.211812C84.4381 0.201808 84.0274 0.274618 83.6449 0.425639C83.2625 0.57666 82.9167 0.802605 82.6294 1.08917ZM61.6251 0.752029C61.0896 1.11152 60.8218 1.72995 60.8218 2.60731V25.0757H66.452V18.2441C67.0836 18.9341 72.4747 24.7602 72.7486 25.0579H79.3559C78.5169 23.8858 71.5232 15.7471 71.5232 15.7471C71.5232 15.7471 72.485 14.9909 73.1493 14.4852C73.8136 13.9795 74.5024 13.4541 75.2127 12.9079C75.923 12.3618 76.6118 11.8029 77.2761 11.2429C77.9404 10.683 78.4944 10.1773 78.9379 9.72874C78.8083 9.52729 78.6558 9.34047 78.4831 9.17176C78.2514 8.94176 77.9932 8.73802 77.7136 8.56451C77.3855 8.36072 77.0335 8.19526 76.665 8.0716C76.2487 7.93376 75.8112 7.86542 75.3711 7.86952C74.9721 7.86283 74.5735 7.89587 74.1815 7.9681C73.8612 8.03364 73.55 8.13556 73.2545 8.27172C72.9513 8.41315 72.6674 8.5903 72.4093 8.79913C72.1405 9.01305 66.866 13.253 66.4459 13.5891V0.715555C66.3062 0.671523 65.9799 0.576229 65.4668 0.429673C64.9094 0.277615 64.3322 0.20358 63.7529 0.209839C62.8672 0.209839 62.1559 0.389913 61.619 0.750059" fill="white"/>
</svg>
