<svg width="40" height="40" viewBox="0 0 40 40" fill="none" xmlns="http://www.w3.org/2000/svg">
<path fill-rule="evenodd" clip-rule="evenodd" d="M16.0865 27.9193L32.8292 23.4331C34.6082 22.9564 35.6391 21.0406 35.133 19.1518L32.0474 7.63636C31.5413 5.7476 29.6906 4.60386 27.9117 5.08052L11.169 9.56671C9.39006 10.0434 8.35913 11.9593 8.86522 13.848L11.9508 25.3635C12.4569 27.2522 14.3092 28.3955 16.0865 27.9193Z" fill="#BDBDBD"/>
<path fill-rule="evenodd" clip-rule="evenodd" d="M8.33333 35H25.6667C27.5083 35 29 33.4162 29 31.4608V19.5392C29 17.5838 27.5083 16 25.6667 16H8.33333C6.49167 16 5 17.5838 5 19.5392V31.4608C5 33.4162 6.49333 35 8.33333 35Z" fill="#1D1D1F"/>
<circle cx="23.5" cy="29.5" r="2.5" fill="#676767"/>
<circle cx="20.5" cy="29.5" r="2.5" fill="#F5F5F5"/>
</svg>
