<svg width="40" height="40" viewBox="0 0 40 40" fill="none" xmlns="http://www.w3.org/2000/svg">
<path fill-rule="evenodd" clip-rule="evenodd" d="M24.8062 3.58992C24.8062 6.24569 22.6543 8.39761 19.9985 8.39761C17.3427 8.39761 15.1908 6.24569 15.1908 3.58992" fill="#BDBDBD"/>
<path d="M24.8062 3.58992C24.8062 6.24569 22.6543 8.39761 19.9985 8.39761C17.3427 8.39761 15.1908 6.24569 15.1908 3.58992H24.8062Z" stroke="#BDBDBD" stroke-width="2.30769" stroke-linecap="round" stroke-linejoin="round"/>
<path fill-rule="evenodd" clip-rule="evenodd" d="M27.2857 37.2436C31.5457 37.2436 35 33.8336 35 29.6282C35 19.8149 28.2843 11.859 20 11.859C11.7157 11.859 5 19.8149 5 29.6282C5 33.8336 8.45429 37.2436 12.7143 37.2436H27.2857Z" fill="#1D1D1F"/>
<path d="M16.8467 30.4751L22.6172 19.9355" stroke="#F5F5F5" stroke-width="1.96154" stroke-linecap="round"/>
<circle cx="24.6169" cy="28.5896" r="1.73077" stroke="#F5F5F5" stroke-width="1.96154"/>
<circle cx="15.3861" cy="21.6665" r="1.73077" stroke="#F5F5F5" stroke-width="1.96154"/>
</svg>
