<svg width="41" height="40" viewBox="0 0 41 40" fill="none" xmlns="http://www.w3.org/2000/svg">
<path fill-rule="evenodd" clip-rule="evenodd" d="M33.5067 30.3551C29.3317 29.5201 25.025 29.6234 20.895 30.6551L20.5 30.7551C16.11 31.8518 11.5317 31.9618 7.095 31.0734L6.84 31.0218C6.06 30.8668 5.5 30.1818 5.5 29.3884V11.3234C5.5 10.2718 6.46167 9.48342 7.49333 9.68842C11.6683 10.5234 15.975 10.4201 20.105 9.38842L20.8933 9.19176C25.0233 8.16009 29.3317 8.05676 33.505 8.89176L34.1583 9.02176C34.94 9.17842 35.5 9.86176 35.5 10.6568V28.7218C35.5 29.7734 34.5383 30.5618 33.5067 30.3551Z" fill="#1D1D1F"/>
<rect x="17" y="15" width="7" height="10" rx="3" stroke="#F5F5F5" stroke-width="2"/>
</svg>
