<svg width="40" height="40" viewBox="0 0 40 40" fill="none" xmlns="http://www.w3.org/2000/svg">
<circle cx="20" cy="20" r="16" fill="#1D1D1F"/>
<mask id="mask0_206_986" style="mask-type:alpha" maskUnits="userSpaceOnUse" x="4" y="4" width="32" height="32">
<circle cx="20" cy="20" r="16" fill="#1D1D1F"/>
</mask>
<g mask="url(#mask0_206_986)">
<path d="M14.0286 16.4403C14.6431 11.0646 6.85054 13.595 1.63012 13.595C-2.2852 24.2653 13.3781 38.4913 12.073 34.2233C10.7679 29.9554 17.0341 30.6163 17.9429 25.6874C18.5986 22.1313 13.3781 22.1313 14.0286 16.4403Z" fill="#676767"/>
<path fill-rule="evenodd" clip-rule="evenodd" d="M28.2594 41.3845C26.5899 42.5939 27.8005 34.1911 27.8005 34.1911C27.9076 33.2295 27.5283 32.2794 26.7882 31.6575C25.95 30.953 25.5822 29.8362 25.8376 28.7707L25.9531 28.2887C26.1651 27.4045 26.7817 26.6708 27.6163 26.3098L31.4917 24.6335C32.495 24.1987 33.6596 24.3698 34.4979 25.0743L42.3201 31.6481" fill="#676767"/>
</g>
<path fill-rule="evenodd" clip-rule="evenodd" d="M12.3611 22H24.6389C25.9434 22 27 20.9164 27 19.5785V11.4215C27 10.0836 25.9434 9 24.6389 9H12.3611C11.0566 9 10 10.0836 10 11.4215V19.5785C10 20.9164 11.0578 22 12.3611 22Z" fill="#F5F5F5"/>
<rect x="19" y="18" width="6" height="2" rx="1" fill="#1D1D1F"/>
</svg>
