<svg width="41" height="40" viewBox="0 0 41 40" fill="none" xmlns="http://www.w3.org/2000/svg">
<path fill-rule="evenodd" clip-rule="evenodd" d="M33.5067 30.355C29.3317 29.52 25.025 29.6233 20.895 30.655L20.5 30.755C16.11 31.8517 11.5317 31.9617 7.095 31.0733L6.84 31.0217C6.06 30.8667 5.5 30.1817 5.5 29.3883V11.3233C5.5 10.2717 6.46167 9.48333 7.49333 9.68833C11.6683 10.5233 15.975 10.42 20.105 9.38833L20.8933 9.19166C25.0233 8.16 29.3317 8.05666 33.505 8.89166L34.1583 9.02166C34.94 9.17833 35.5 9.86166 35.5 10.6567V28.7217C35.5 29.7733 34.5383 30.5617 33.5067 30.355Z" fill="white"/>
<path d="M20.4984 15.625V14.1667" stroke="#262626" stroke-width="2" stroke-linecap="round" stroke-linejoin="round"/>
<path d="M20.4984 24.3752V25.8335" stroke="#262626" stroke-width="2" stroke-linecap="round" stroke-linejoin="round"/>
<path d="M17.9716 23.3335C18.35 23.9519 18.995 24.3802 19.7733 24.3802H20.5033H21.3716C22.5033 24.3802 23.4183 23.4635 23.4183 22.3335C23.4183 21.3935 22.7783 20.5752 21.8683 20.3452L19.135 19.6585C18.2266 19.4302 17.585 18.6102 17.585 17.6702C17.585 16.5385 18.5016 15.6235 19.6316 15.6235H20.5H21.23C22.0083 15.6235 22.6516 16.0485 23.03 16.6652" stroke="#262626" stroke-width="2" stroke-linecap="round" stroke-linejoin="round"/>
</svg>
