<svg width="42" height="42" viewBox="0 0 42 42" fill="none" xmlns="http://www.w3.org/2000/svg">
<path fill-rule="evenodd" clip-rule="evenodd" d="M13.5 23.0001L9.48775 21.6079C9.0292 21.4551 8.65955 21.1108 8.47458 20.6642C8.28961 20.2177 8.30752 19.7128 8.52368 19.2805L10.5379 15.2523C10.8203 14.6874 11.3976 14.3306 12.0291 14.3306H19.3354" fill="#676767"/>
<path fill-rule="evenodd" clip-rule="evenodd" d="M27.6727 22.6675V29.9739C27.6727 30.6054 27.3159 31.1827 26.751 31.4652L22.7228 33.4794C22.2905 33.6955 21.7856 33.7134 21.3391 33.5285C20.8925 33.3435 20.5482 32.9738 20.3954 32.5153L18.5 28.0002" fill="#676767"/>
<path fill-rule="evenodd" clip-rule="evenodd" d="M29.5019 21.2058L20.5035 28.4044C19.8401 28.9352 18.8837 28.8822 18.283 28.2815L13.724 23.7225C13.1233 23.1218 13.0703 22.1654 13.601 21.5019L20.7997 12.5036C24.0914 8.38892 29.0751 5.99365 34.3445 5.99365C35.2653 5.99365 36.0118 6.74016 36.0118 7.66101C36.0118 12.9304 33.6166 17.914 29.5019 21.2058Z" fill="white"/>
<path fill-rule="evenodd" clip-rule="evenodd" d="M10.5815 35.3172L5.99609 36.0061L6.68496 31.4207C6.90843 29.9331 8.07613 28.7654 9.56365 28.542C10.6386 28.3805 11.7263 28.7387 12.495 29.5073C13.2636 30.2759 13.6218 31.3637 13.4603 32.4386C13.2368 33.9261 12.069 35.0938 10.5815 35.3172Z" fill="white"/>
</svg>
